<?xml version="1.0" encoding="utf-8"?>
<!-- Generator: Adobe Illustrator 21.1.0, SVG Export Plug-In . SVG Version: 6.00 Build 0)  -->
<svg version="1.0" id="Camada_1" xmlns="http://www.w3.org/2000/svg" xmlns:xlink="http://www.w3.org/1999/xlink" x="0px" y="0px"
	 viewBox="0 0 314 62" style="enable-background:new 0 0 314 62;" xml:space="preserve">
<g>
	<g>
		<g>
			<g>
				<g>
					<g>
						<path style="fill:#2C313B;" d="M68.1,61.6v-13h1.8v13H68.1z"/>
						<path style="fill:#2C313B;" d="M73.2,61.6v-13h2.1l7.3,10.4V48.6h1.8v13h-2L75,51.2v10.4H73.2z"/>
						<path style="fill:#2C313B;" d="M87.4,61.6v-13h4.1c2,0,3.5,0.6,4.5,1.7c1,1.1,1.6,2.7,1.6,4.9s-0.5,3.7-1.5,4.8
							c-1,1.1-2.5,1.6-4.6,1.6H87.4z M89.2,60h2c1.6,0,2.8-0.4,3.5-1.2c0.7-0.8,1.1-2,1.1-3.7c0-1.7-0.4-2.9-1.1-3.7
							c-0.7-0.8-1.9-1.2-3.5-1.2h-2V60z"/>
						<path style="fill:#2C313B;" d="M100.4,56.2v-7.6h1.8v7.8c0,1.3,0.3,2.2,0.9,2.8c0.6,0.6,1.5,0.9,2.7,0.9
							c1.2,0,2.1-0.3,2.7-0.9c0.6-0.6,0.9-1.6,0.9-2.8v-7.8h1.8v7.6c0,1.8-0.5,3.1-1.4,4.1c-0.9,1-2.2,1.5-3.9,1.5
							c-1.7,0-3-0.5-3.9-1.5C100.8,59.3,100.4,58,100.4,56.2z"/>
						<path style="fill:#2C313B;" d="M113.7,52.1c0-1,0.4-1.9,1.1-2.6c0.7-0.7,1.9-1.1,3.4-1.1c1.2,0,2.3,0.3,3.4,0.8V51
							c-1-0.6-2-0.9-3.1-0.9c-2,0-2.9,0.7-2.9,2c0,0.4,0.2,0.7,0.5,0.9c0.3,0.3,0.8,0.5,1.3,0.6c0.5,0.2,1.1,0.4,1.7,0.6
							c0.6,0.3,1.2,0.5,1.7,0.8c0.5,0.3,0.9,0.7,1.3,1.2c0.3,0.5,0.5,1.2,0.5,1.9c0,1.1-0.4,2-1.2,2.6c-0.8,0.6-2,0.9-3.5,0.9
							c-1.3,0-2.6-0.3-3.9-0.9v-1.9c1.2,0.7,2.4,1.1,3.7,1.1c2,0,3-0.6,3-1.8c0-0.5-0.2-1-0.5-1.3c-0.3-0.4-0.8-0.6-1.3-0.8
							l-1.7-0.6c-0.6-0.2-1.2-0.4-1.7-0.6c-0.5-0.2-0.9-0.6-1.3-1C113.9,53.3,113.7,52.8,113.7,52.1z"/>
						<path style="fill:#2C313B;" d="M123.7,50.3v-1.7h10.6v1.7h-4.4v11.3H128V50.3H123.7z"/>
						<path style="fill:#2C313B;" d="M136.4,61.6v-13h4.8c1.5,0,2.6,0.3,3.4,1c0.8,0.7,1.3,1.7,1.3,2.9c0,1.1-0.3,1.9-0.8,2.5
							c-0.6,0.6-1.2,1.1-2.1,1.3l3.5,5.2h-2.1l-3.1-5h-2.9v5H136.4z M138.2,54.9h2.9c1.1,0,1.9-0.2,2.3-0.7c0.4-0.4,0.6-1,0.6-1.7
							c0-1.6-1-2.4-3-2.4h-2.8V54.9z"/>
						<path style="fill:#2C313B;" d="M147.1,48.6h2.2l3.6,5.3l3.6-5.3h2.2l-5,7.2v5.8H152v-5.8L147.1,48.6z"/>
						<path style="fill:#2C313B;" d="M166.6,57.9c0-0.7,0.2-1.4,0.5-2.1c0.4-0.6,1.1-1.3,2.1-1.8c-0.8-1-1.2-1.9-1.2-2.6
							c0-0.8,0.3-1.5,0.9-2.1c0.6-0.6,1.3-0.9,2.2-0.9c0.9,0,1.6,0.3,2.2,0.9c0.6,0.6,0.9,1.3,0.9,2.1c0,0.7-0.2,1.3-0.5,1.7
							c-0.4,0.5-0.9,0.9-1.8,1.4l2.5,3c0.2-0.5,0.4-1.1,0.5-1.7h1.8c-0.2,1.1-0.6,2.1-1.2,3l2.3,2.7h-2.2l-1.1-1.4
							c-1,1-2.2,1.5-3.6,1.5c0,0,0,0,0,0c-0.7,0-1.4-0.1-1.9-0.4c-0.6-0.3-1-0.6-1.3-1c-0.3-0.4-0.6-0.8-0.7-1.2
							C166.7,58.7,166.6,58.3,166.6,57.9z M168.4,58c0,0.2,0,0.4,0.1,0.6c0.1,0.2,0.2,0.5,0.4,0.7c0.2,0.3,0.4,0.5,0.8,0.6
							c0.4,0.2,0.8,0.3,1.3,0.3c1,0,1.9-0.4,2.6-1.2l-3.1-3.8c-0.5,0.2-0.8,0.5-1.1,0.8c-0.3,0.3-0.5,0.5-0.6,0.8
							c-0.1,0.3-0.2,0.5-0.2,0.6C168.4,57.6,168.4,57.7,168.4,58z M170.1,50.3c-0.3,0.3-0.4,0.6-0.4,1.1c0,0.4,0.4,1.1,1.1,1.9
							c0.8-0.4,1.3-0.8,1.5-1.1c0.2-0.3,0.3-0.6,0.3-1c0-0.4-0.1-0.7-0.4-1c-0.3-0.3-0.6-0.4-1-0.4C170.7,49.8,170.4,50,170.1,50.3z
							"/>
						<path style="fill:#2C313B;" d="M185,50.3v-1.7h10.6v1.7h-4.4v11.3h-1.8V50.3H185z"/>
						<path style="fill:#2C313B;" d="M197.7,61.6v-13h8.5v1.7h-6.7v4h5.9v1.7h-5.9v4h6.7v1.7H197.7z"/>
						<path style="fill:#2C313B;" d="M208.4,57.9c-0.2-0.8-0.4-1.7-0.4-2.8s0.1-2,0.4-2.8c0.2-0.8,0.5-1.4,0.9-1.9
							c0.4-0.5,0.8-0.9,1.4-1.2s1.1-0.5,1.6-0.6c0.5-0.1,1.1-0.2,1.7-0.2c1.4,0,2.7,0.3,4,0.8v1.7c-1.2-0.5-2.5-0.8-3.8-0.8
							c-1.5,0-2.7,0.4-3.3,1.2c-0.7,0.8-1,2.1-1,3.8c0,1.8,0.3,3,1,3.8s1.8,1.2,3.3,1.2c1.3,0,2.5-0.3,3.8-0.8V61
							c-1.3,0.5-2.6,0.8-4,0.8c-0.6,0-1.2-0.1-1.7-0.2c-0.5-0.1-1.1-0.3-1.6-0.6s-1-0.7-1.4-1.2C209,59.3,208.7,58.7,208.4,57.9z"/>
						<path style="fill:#2C313B;" d="M220.6,61.6v-13h1.8v5.7h6.2v-5.7h1.8v13h-1.8v-5.7h-6.2v5.7H220.6z"/>
						<path style="fill:#2C313B;" d="M233.7,61.6v-13h2.1l7.3,10.4V48.6h1.8v13h-2l-7.3-10.4v10.4H233.7z"/>
						<path style="fill:#2C313B;" d="M247.9,57.9c-0.2-0.8-0.4-1.7-0.4-2.8s0.1-2,0.4-2.8c0.2-0.8,0.6-1.4,1-1.9
							c0.4-0.5,0.9-0.9,1.4-1.2c0.6-0.3,1.1-0.5,1.6-0.6c0.5-0.1,1.1-0.2,1.7-0.2c0.6,0,1.2,0.1,1.7,0.2c0.5,0.1,1.1,0.3,1.6,0.6
							c0.6,0.3,1,0.7,1.4,1.2c0.4,0.5,0.7,1.1,1,1.9c0.2,0.8,0.4,1.7,0.4,2.8s-0.1,2-0.4,2.8c-0.2,0.8-0.6,1.4-1,1.9
							c-0.4,0.5-0.9,0.9-1.4,1.2c-0.6,0.3-1.1,0.5-1.6,0.6c-0.5,0.1-1.1,0.2-1.7,0.2c-0.6,0-1.2-0.1-1.7-0.2
							c-0.5-0.1-1.1-0.3-1.6-0.6c-0.6-0.3-1-0.7-1.4-1.2C248.5,59.3,248.2,58.7,247.9,57.9z M249.7,52.8c-0.2,0.6-0.3,1.4-0.3,2.2
							c0,0.9,0.1,1.6,0.3,2.2c0.2,0.6,0.4,1.1,0.7,1.5c0.3,0.3,0.6,0.6,1,0.8c0.4,0.2,0.8,0.3,1.1,0.4c0.3,0.1,0.7,0.1,1.2,0.1
							c0.5,0,0.9,0,1.2-0.1c0.4-0.1,0.7-0.2,1.1-0.4c0.4-0.2,0.7-0.5,1-0.8c0.3-0.3,0.5-0.8,0.7-1.5c0.2-0.6,0.3-1.4,0.3-2.2
							c0-0.9-0.1-1.6-0.3-2.2c-0.2-0.6-0.4-1.1-0.7-1.5c-0.3-0.3-0.6-0.6-1-0.8c-0.4-0.2-0.8-0.3-1.1-0.4s-0.8-0.1-1.2-0.1
							c-0.5,0-0.9,0-1.2,0.1c-0.3,0.1-0.7,0.2-1.1,0.4c-0.4,0.2-0.7,0.5-1,0.8C250.1,51.7,249.8,52.2,249.7,52.8z"/>
						<path style="fill:#2C313B;" d="M262.4,61.6v-13h1.8v11.3h6.5v1.7H262.4z"/>
						<path style="fill:#2C313B;" d="M272.5,57.9c-0.2-0.8-0.4-1.7-0.4-2.8s0.1-2,0.4-2.8c0.2-0.8,0.6-1.4,1-1.9
							c0.4-0.5,0.9-0.9,1.4-1.2s1.1-0.5,1.6-0.6c0.5-0.1,1.1-0.2,1.7-0.2c0.6,0,1.2,0.1,1.7,0.2c0.5,0.1,1.1,0.3,1.6,0.6
							c0.6,0.3,1,0.7,1.4,1.2c0.4,0.5,0.7,1.1,1,1.9c0.2,0.8,0.4,1.7,0.4,2.8s-0.1,2-0.4,2.8c-0.2,0.8-0.6,1.4-1,1.9
							c-0.4,0.5-0.9,0.9-1.4,1.2c-0.6,0.3-1.1,0.5-1.6,0.6c-0.5,0.1-1.1,0.2-1.7,0.2c-0.6,0-1.2-0.1-1.7-0.2
							c-0.5-0.1-1.1-0.3-1.6-0.6s-1-0.7-1.4-1.2C273.1,59.3,272.8,58.7,272.5,57.9z M274.3,52.8c-0.2,0.6-0.3,1.4-0.3,2.2
							c0,0.9,0.1,1.6,0.3,2.2c0.2,0.6,0.4,1.1,0.7,1.5c0.3,0.3,0.6,0.6,1,0.8c0.4,0.2,0.8,0.3,1.1,0.4c0.3,0.1,0.7,0.1,1.2,0.1
							c0.5,0,0.9,0,1.2-0.1c0.4-0.1,0.7-0.2,1.1-0.4c0.4-0.2,0.7-0.5,1-0.8c0.3-0.3,0.5-0.8,0.7-1.5c0.2-0.6,0.3-1.4,0.3-2.2
							c0-0.9-0.1-1.6-0.3-2.2c-0.2-0.6-0.4-1.1-0.7-1.5c-0.3-0.3-0.6-0.6-1-0.8c-0.4-0.2-0.8-0.3-1.1-0.4s-0.8-0.1-1.2-0.1
							c-0.5,0-0.9,0-1.2,0.1c-0.3,0.1-0.7,0.2-1.1,0.4c-0.4,0.2-0.7,0.5-1,0.8C274.7,51.7,274.4,52.2,274.3,52.8z"/>
						<path style="fill:#2C313B;" d="M286.6,55.1c0-1.1,0.1-2,0.4-2.8c0.2-0.8,0.6-1.5,1-1.9c0.4-0.5,0.9-0.9,1.4-1.2
							c0.5-0.3,1.1-0.5,1.6-0.6s1.1-0.2,1.7-0.2c1.4,0,2.8,0.3,4.1,0.8v1.7c-1.3-0.5-2.6-0.8-3.9-0.8c-0.5,0-0.9,0-1.3,0.1
							c-0.4,0.1-0.8,0.2-1.2,0.4c-0.4,0.2-0.8,0.5-1,0.8c-0.3,0.3-0.5,0.8-0.7,1.5c-0.2,0.6-0.3,1.4-0.3,2.2c0,0.9,0.1,1.6,0.3,2.2
							c0.2,0.6,0.4,1.1,0.7,1.5c0.3,0.3,0.6,0.6,1,0.8c0.4,0.2,0.8,0.3,1.2,0.4c0.4,0.1,0.8,0.1,1.3,0.1c0.9,0,1.7-0.1,2.6-0.4v-3.7
							h-2.6v-1.7h4.4v6.3c-1.4,0.7-3,1-4.5,1c0,0,0,0,0,0c-0.6,0-1.2-0.1-1.7-0.2c-0.5-0.1-1.1-0.3-1.6-0.6s-1-0.7-1.4-1.2
							c-0.4-0.5-0.7-1.1-1-1.9C286.7,57.1,286.6,56.1,286.6,55.1z"/>
						<path style="fill:#2C313B;" d="M298.8,48.6h2.2l3.6,5.3l3.6-5.3h2.2l-5,7.2v5.8h-1.8v-5.8L298.8,48.6z"/>
					</g>
					<polygon style="fill:#2C313B;" points="103.1,33.7 112,33.7 112,21.7 121.7,21.7 121.7,14.7 112,14.7 112,8.1 125.9,8.1 
						125.9,0.8 103.1,0.8 					"/>
					<rect x="129" y="0.8" style="fill:#2C313B;" width="8.9" height="32.9"/>
					<polygon style="fill:#2C313B;" points="164.3,19.2 164.2,19.2 152.2,0.8 143.4,0.8 143.4,33.7 151.5,33.7 151.5,15.3 
						151.6,15.3 164.2,33.7 172.4,33.7 172.4,0.8 164.3,0.8 					"/>
					<path style="fill:#2C313B;" d="M192.3,0.1c-8,0-16.2,5-16.2,17.1s8.2,17.1,16.2,17.1c7.9,0,16.2-5,16.2-17.1
						S200.3,0.1,192.3,0.1z M192.3,27.2c-4.7,0-7.3-3.9-7.3-10s2.6-9.7,7.3-9.7c4.6,0,7.3,3.7,7.3,9.7S197,27.2,192.3,27.2z"/>
					<path style="fill:#2C313B;" d="M229.8,23.1L229.8,23.1L224,0.8h-11.8v32.9h7.9V12.9h0.1c0.7,4.3,1.1,5.8,1.9,8.5l3.4,12.4h7.8
						l3.5-12.4c0.7-2.5,1.2-4.6,1.8-8h0.1v20.4h8.5V0.8H235L229.8,23.1z"/>
					<path style="fill:#2C313B;" d="M261.4,0.6l-11.7,33.1h8.1l2.3-6.8h10l2.2,6.8h9L269.7,0.6H261.4z M262.2,20.9l3-8.8h0.1
						l2.9,8.8H262.2z"/>
					<path style="fill:#2C313B;" d="M80.6,0.6L69,33.7H77l2.3-6.8h10l2.2,6.8h9L88.9,0.6H80.6z M81.4,20.9l3-8.8h0.1l2.9,8.8H81.4z"
						/>
					<path style="fill:#2C313B;" d="M314,17.8c0-12-8.2-17.1-16.1-17.1c-8,0-16.2,5-16.2,17.1s8.2,17.1,16.2,17.1c0.5,0,1,0,1.6-0.1
						l1.8,4.5l8.5-0.1l-2.7-6.9C311,29.7,314,25,314,17.8z M290.6,17.8c0-6,2.6-9.7,7.3-9.7c4.6,0,7.2,3.7,7.2,9.7s-2.6,10-7.2,10
						C293.2,27.7,290.6,23.8,290.6,17.8z"/>
				</g>
			</g>
		</g>
	</g>
	<g>
		<g>
			<path style="fill:#C00F19;" d="M21.9,0.6L0,61.9h42.1l2.6-7.2c-3.8-1.4-7.3-3.7-10.1-6.8c-4.5-5-6.7-11.3-6.4-18
				C28.9,16.7,39.8,6.3,53.1,6.3h0h0c0.4,0,0.9,0,1.3,0c2.4,0.1,4.8,0.6,7.1,1.4L64,0.6H21.9z"/>
			<path style="fill:#C00F19;" d="M56.9,9.3L56.9,9.3c-0.2,2.5-2.2,4.6-4.8,4.7c-2.6,0.1-4.8-1.7-5.2-4.2c0,0,0,0,0,0
				c-2.4,0.7-4.6,1.8-6.6,3.2c0,0,0,0,0,0c1.7,1.9,1.7,4.8-0.1,6.7c-1.7,1.9-4.6,2.2-6.6,0.8c0,0,0,0-0.1,0c-1.2,2.1-2,4.5-2.5,6.9
				c0,0,0,0,0.1,0c2.5,0.2,4.5,2.2,4.7,4.8c0.1,2.6-1.7,4.8-4.1,5.2c0,0,0,0-0.1,0c0.7,2.4,1.8,4.6,3.2,6.6c0,0,0,0,0,0
				c1.9-1.6,4.8-1.7,6.7,0.1c1.9,1.7,2.2,4.6,0.7,6.7c1,0.6,2.1,1.1,3.3,1.5l5.9-16.4c-1.8-0.6-3.1-2.3-3.2-4.3
				c-0.1-2.7,1.9-4.9,4.6-5.1c0.7,0,1.3,0.1,1.9,0.3l5.9-16.4l0,0c-1.1-0.4-2.3-0.7-3.6-0.9C57,9.3,57,9.3,56.9,9.3z"/>
		</g>
	</g>
</g>
</svg>
